<?xml version="1.0" encoding="utf-8"?>
<svg viewBox="0 0 500 500" xmlns="http://www.w3.org/2000/svg">
  <g transform="matrix(1.17609, 0, 0, 1.17609, 24.862549, -124.857538)" style="">
    <path d="M192.5 127C86.185 127 0 213.185 0 319.5S86.185 512 192.5 512 385 425.815 385 319.5 298.815 127 192.5 127zm91.75 255.15v30h-78v-28.072l45.364-45.364a8.945 8.945 0 0 0 2.636-6.364c0-4.963-4.037-9-9-9s-9 4.037-9 9h-30c0-21.505 17.495-39 39-39s39 17.495 39 39c0 10.417-4.057 20.211-11.423 27.577l-22.224 22.224h33.647zm-100.5-49.8c0 28.948-23.552 52.5-52.5 52.5s-52.5-23.552-52.5-52.5v-60c0-28.948 23.552-52.5 52.5-52.5s52.5 23.552 52.5 52.5z" fill="#000000" data-original="#000000" class=""/>
    <path d="M131.25 249.85c-12.406 0-22.5 10.094-22.5 22.5v60c0 12.406 10.094 22.5 22.5 22.5s22.5-10.094 22.5-22.5v-60c0-12.407-10.094-22.5-22.5-22.5z" fill="#000000" data-original="#000000" class=""/>
  </g>
</svg>