<?xml version="1.0" encoding="utf-8"?>
<svg viewBox="0 0 500 500" xmlns="http://www.w3.org/2000/svg">
  <g transform="matrix(0.945697, 0, 0, 0.945697, 6.573411, 10.72247)" style="">
    <path d="M376.349 496.219h-15.612c-74.798 0-135.65-60.853-135.65-135.651v-174.95c0-74.798 60.853-135.65 135.65-135.65h15.612c74.799 0 135.651 60.853 135.651 135.65v10.054c0 24.903-20.26 45.163-45.163 45.163s-45.163-20.26-45.163-45.163v-10.054c0-24.992-20.333-45.325-45.325-45.325h-15.612c-24.992 0-45.325 20.333-45.325 45.325v174.95c0 24.993 20.333 45.326 45.325 45.326h15.612c24.992 0 45.325-20.333 45.325-45.326v-10.054c0-24.903 20.26-45.163 45.163-45.163S512 325.611 512 350.514v10.054c0 74.799-60.853 135.651-135.651 135.651zM95.434 15.781C42.812 15.781 0 58.592 0 111.214s42.812 95.434 95.434 95.434 95.434-42.812 95.434-95.434c-.001-52.622-42.812-95.433-95.434-95.433zm0 125.515c-16.587 0-30.082-13.494-30.082-30.081s13.495-30.083 30.082-30.083 30.081 13.495 30.081 30.083c0 16.587-13.494 30.081-30.081 30.081z" fill="#000000" data-original="#000000"/>
  </g>
</svg>